<?xml version="1.0" standalone="no"?><!DOCTYPE svg PUBLIC "-//W3C//DTD SVG 1.1//EN" "http://www.w3.org/Graphics/SVG/1.1/DTD/svg11.dtd"><svg t="1558950648991" class="icon" style="" viewBox="0 0 1024 1024" version="1.1" xmlns="http://www.w3.org/2000/svg" p-id="2792" xmlns:xlink="http://www.w3.org/1999/xlink" width="200" height="200"><defs><style type="text/css"></style></defs><path d="M271.0272 870.4C206.2336 870.4 153.6 814.4128 153.6 745.5744V278.4256C153.6 209.5616 209.8944 153.6 279.04 153.6h414.5152a125.0304 125.0304 0 0 1 124.9536 124.8256v26.4192l1.8944 1.408c31.2832 23.552 49.9968 61.5936 49.9968 101.8368v337.4848C870.4 814.4384 817.6896 870.4 752.9728 870.4H271.0272zM279.04 196.0704a82.7648 82.7648 0 0 0-82.9696 82.3552v467.1488c0 45.3888 33.6128 82.3552 74.9056 82.3552h481.9968c41.344 0 74.9568-36.9152 74.9568-82.3552V408.0896c0-45.3888-33.6128-82.3552-74.9568-82.3552H330.4192a21.248 21.248 0 0 1 0-42.4704h422.5536c5.888 0 11.52 0.9216 17.4848 1.92l5.4528 0.896 0.1536-5.5296v-2.1248a82.5344 82.5344 0 0 0-82.5088-82.3552H279.04z" p-id="2793"></path><path d="M728.704 588.8a25.6 25.6 0 1 1 0 51.2H588.8a25.6 25.6 0 0 1 0-51.2h139.904z m-14.4384 102.4a25.6 25.6 0 1 1 0 51.2H307.2a25.6 25.6 0 0 1 0-51.2h407.0656zM505.0624 419.1488c13.312 6.6048 22.1952 19.6608 23.9104 33.9712l0.2048 3.072v2.816l-0.0256 1.024-1.3824 34.304c0 2.8416-0.2304 4.9152-0.6656 7.7568l-0.2048 2.1504c-6.656 59.8016-50.304 124.3392-102.912 150.6816a22.7072 22.7072 0 0 0 3.2256-1.9968 23.424 23.424 0 0 1-7.2704 3.9936l-3.072 1.536a25.6 25.6 0 0 1-19.6352 1.3568l-2.0992-0.7168-3.3536-1.408-2.816-1.408a25.3184 25.3184 0 0 1-6.0928-4.3008c1.7664 1.6896 1.28 1.536 1.8176 1.792-54.2464-28.8512-97.536-96.0512-100.864-156.7232l-0.6656-13.1072-1.3824-22.7328c-1.5104-15.6672 6.144-29.824 18.432-38.5536a25.6 25.6 0 0 1-0.5632 0.512c2.2784-1.9968 5.12-3.712 8.6016-4.7872l1.3568-0.64A40.064 40.064 0 0 1 348.9536 384h112.9472c19.7888 0 36.1984 14.5408 39.2448 33.4592l3.9168 1.6896z m-207.744 6.2464z m9.2672-6.0928a25.856 25.856 0 0 1 0.6912-0.1536l-0.6912 0.1536z m78.3872 234.624l-0.256-0.1536 0.256 0.1536z m26.112 4.4032v-25.6l11.4432 22.8864-2.5856 1.3056c-2.5856 0.896-5.5296 1.408-8.8576 1.408z m7.68-1.408a26.2912 26.2912 0 0 1-0.4352 0.0512l0.4096-0.0512z m57.9584-194.3296l-10.5984-5.632a25.6 25.6 0 0 1-6.4256-4.864l-1.3824-1.4592-1.2032-1.408c-3.7376-4.5056-5.9136-7.936-6.5024-14.0288h-90.2912a25.6 25.6 0 0 1-7.3984 15.8208l-0.3584 0.3584-0.6912 0.7168a25.6 25.6 0 0 1-5.888 4.5568l-6.6048 3.6352-6.2208 2.944 1.1264 17.792 0.6912 13.312c2.2528 41.472 33.5104 90.9824 70.5024 112.4352 34.7648-19.8656 65.408-66.2528 70.4-107.0848a42.752 42.752 0 0 1 0.64-5.4784c0.0768-0.4096 0.0512-0.2816 0.0768-0.8704l1.2032-30.2848-1.0752-0.4608z m-82.688 151.3472z m10.8032-6.0928a26.2912 26.2912 0 0 1 0.4096-0.0512l-0.4096 0.0512z m-71.936-148.8128l-0.0512-0.8448 0.0512 0.8448z m-0.1792-2.8672l0.0768 1.4336a12.672 12.672 0 0 0-0.0768-1.4336z m-10.4192 11.5968c1.536-0.384 3.328-0.9984 5.0944-1.8176l1.3824-0.6656a23.68 23.68 0 0 1-6.4768 2.4832z m-0.3584 0.0256a25.6 25.6 0 0 1 0.3584-0.0256l-0.3584 0.0256z" p-id="2794"></path></svg>