<?xml version="1.0" standalone="no"?><!DOCTYPE svg PUBLIC "-//W3C//DTD SVG 1.1//EN" "http://www.w3.org/Graphics/SVG/1.1/DTD/svg11.dtd"><svg t="1558950656640" class="icon" style="" viewBox="0 0 1024 1024" version="1.1" xmlns="http://www.w3.org/2000/svg" p-id="3037" xmlns:xlink="http://www.w3.org/1999/xlink" width="200" height="200"><defs><style type="text/css"></style></defs><path d="M280.5248 401.7408c0 11.6224 9.4208 21.0432 21.0432 21.0432h378.7776a21.0432 21.0432 0 0 0 0-42.0864H301.568a21.0432 21.0432 0 0 0-21.0432 21.0432z m315.648 105.216H301.568a21.0432 21.0432 0 1 0 0 42.0864h294.6048a21.0432 21.0432 0 0 0 0-42.0864z m-126.2592 168.3456a21.0432 21.0432 0 0 0 0-42.0864H301.568a21.0432 21.0432 0 1 0 0 42.0864h168.3456zM512 254.4384a21.0432 21.0432 0 0 0 0-42.112h-42.0864a21.0432 21.0432 0 0 0 0 42.112H512z m351.5904 446.5408l-59.5456-59.4688a21.0432 21.0432 0 0 0-29.7472 0l-148.7872 148.7616c-1.024 1.536-2.048 3.072-3.0208 4.608a20.8384 20.8384 0 0 0-3.1232 10.24v59.5712c0 11.6224 9.4208 21.0432 21.0432 21.0432h59.52a20.7104 20.7104 0 0 0 10.3424-3.1232 19.6096 19.6096 0 0 0 2.2272-1.5104 20.6336 20.6336 0 0 0 2.2784-1.5104l148.8128-148.8128a21.0432 21.0432 0 0 0 0-29.7728v-0.0256z m-163.712 133.9648l-14.848-14.8992-14.848-14.8992 119.0144-119.04 29.7472 29.7728-119.0656 119.04z" p-id="3038"></path><path d="M607.4368 210.048h140.672a76.8 76.8 0 0 1 76.8 76.8v279.04a25.6 25.6 0 1 1-51.2 0v-279.04a25.6 25.6 0 0 0-25.6-25.6h-160.896a25.6 25.6 0 0 1-25.2672-21.3504c-7.0144-41.728-28.6976-59.8272-72.0384-59.8272-43.5712 0-66.2784 18.4576-74.624 60.544a25.6 25.6 0 0 1-25.1136 20.6336h-158.464a25.6 25.6 0 0 0-25.6 25.6v529.5104a25.6 25.6 0 0 0 25.6 25.6h305.408a25.6 25.6 0 1 1 0 51.2H231.68a76.8 76.8 0 0 1-76.8-76.8V286.848a76.8 76.8 0 0 1 76.8-76.8h138.752c17.6128-52.9152 58.9568-81.1776 119.4496-81.1776 60.4928 0 101.2736 28.3392 117.5296 81.152z" p-id="3039"></path></svg>