<?xml version="1.0" standalone="no"?><!DOCTYPE svg PUBLIC "-//W3C//DTD SVG 1.1//EN" "http://www.w3.org/Graphics/SVG/1.1/DTD/svg11.dtd"><svg t="1559017562322" class="icon" style="" viewBox="0 0 1024 1024" version="1.1" xmlns="http://www.w3.org/2000/svg" p-id="3247" xmlns:xlink="http://www.w3.org/1999/xlink" width="200" height="200"><defs><style type="text/css"></style></defs><path d="M393.0112 209.8176a25.6 25.6 0 1 0 0 51.2h496.64a25.6 25.6 0 0 0 0-51.2h-496.64z m76.5184 359.04a25.6 25.6 0 1 0 0 51.2h420.1472a25.6 25.6 0 0 0 0-51.2H469.504z m0-179.5328a25.6 25.6 0 0 0 0 51.2h420.1472a25.6 25.6 0 0 0 0-51.2H469.504z m-76.544 359.04a25.6 25.6 0 1 0 0 51.2h496.6912a25.6 25.6 0 0 0 0-51.2H393.0112z m-283.0592-19.3536a25.6 25.6 0 0 0 37.632 34.688l186.496-202.3168c22.7072-22.6816 22.7072-64.2816 0.7168-86.2464l-187.1872-203.0592a25.6 25.6 0 0 0-37.632 34.688l187.904 203.8272c2.7136 2.7136 2.7136 11.8784-0.7168 15.3088l-187.2128 203.1104z" p-id="3248"></path></svg>