<?xml version="1.0" standalone="no"?><!DOCTYPE svg PUBLIC "-//W3C//DTD SVG 1.1//EN" "http://www.w3.org/Graphics/SVG/1.1/DTD/svg11.dtd"><svg t="1558950663994" class="icon" style="" viewBox="0 0 1024 1024" version="1.1" xmlns="http://www.w3.org/2000/svg" p-id="3283" xmlns:xlink="http://www.w3.org/1999/xlink" width="200" height="200"><defs><style type="text/css"></style></defs><path d="M752.3584 179.2a25.6 25.6 0 0 1 0-51.2 107.7248 107.7248 0 0 1 107.4688 107.4688v545.8944a107.7248 107.7248 0 0 1-107.4688 107.4688h-491.264A107.6992 107.6992 0 0 1 153.6 781.3632V235.4688A107.7248 107.7248 0 0 1 261.0688 128a25.6 25.6 0 1 1 0 51.2A56.5248 56.5248 0 0 0 204.8 235.4688v545.8944c0 30.8992 25.344 56.2688 56.2688 56.2688H752.384a56.5248 56.5248 0 0 0 56.2688-56.2688V235.4688A56.5248 56.5248 0 0 0 752.384 179.2z" p-id="3284"></path><path d="M395.0592 102.4h220.0064c35.2256 0 62.2592 31.4624 62.2592 68.2752 0 36.8128-27.0336 68.2752-62.2592 68.2752h-220.0064C359.8336 238.9504 332.8 207.5136 332.8 170.7008 332.8 133.8368 359.808 102.4 395.0592 102.4z m0 51.2c-5.0944 0-11.0592 6.9376-11.0592 17.0752s5.9648 17.0752 11.0592 17.0752h220.0064c5.0688 0 11.0592-6.9632 11.0592-17.0496 0-10.1376-5.9904-17.1008-11.0592-17.1008h-220.0064z" p-id="3285"></path><path d="M506.4704 546.7136a230.4 230.4 0 0 0-0.5632 0.0512l0.5632-0.0512zM371.2 659.968a25.6 25.6 0 0 1-51.2 0c0-18.2784 9.4976-52.8896 28.7744-82.432 31.0272-47.5648 82.0992-77.824 156.2624-81.9456a190.208 190.208 0 0 1 35.2768 2.8416c21.0176 3.584 41.856 10.3168 61.4912 21.0432 6.7328 3.6864 13.2352 7.808 19.4816 12.3904a25.6 25.6 0 0 1-13.9776 47.0272c1.8176 0.2816 2.7392 0.4352 4.992-0.512-3.456 1.92-12.9536 0.9472-20.352-4.5568a124.6208 124.6208 0 0 0-14.72-9.4208 143.5136 143.5136 0 0 0-70.9632-17.6384c-95.1552 5.5552-135.0656 66.816-135.0656 113.2032z m241.1008-81.5872c2.2528-0.9216 5.8624-2.944 13.056-6.9632a25.5232 25.5232 0 0 1-8.4224 5.5808l-4.608 1.3824z" p-id="3286"></path><path d="M514.56 496.9728c37.0176 0 66.56-28.6208 66.56-64.3584 0-35.968-29.7472-65.0752-66.56-65.0752-36.992 0-66.56 28.6208-66.56 64.3584 0 35.9424 29.7728 65.0752 66.56 65.0752z m0 51.2c-64.8192 0-117.76-51.8144-117.76-116.2752 0-64.4096 52.864-115.5584 117.76-115.5584 64.8448 0 117.76 51.7888 117.76 116.2752 0 64.4096-52.8384 115.5584-117.76 115.5584zM688.384 597.9392a25.6 25.6 0 1 1 0 51.2H576a25.6 25.6 0 0 1 0-51.2h112.384z m0 76.8a25.6 25.6 0 1 1 0 51.2H576a25.6 25.6 0 0 1 0-51.2h112.384z" p-id="3287"></path></svg>