<?xml version="1.0" standalone="no"?><!DOCTYPE svg PUBLIC "-//W3C//DTD SVG 1.1//EN" "http://www.w3.org/Graphics/SVG/1.1/DTD/svg11.dtd"><svg t="1558950667604" class="icon" style="" viewBox="0 0 1024 1024" version="1.1" xmlns="http://www.w3.org/2000/svg" p-id="3408" xmlns:xlink="http://www.w3.org/1999/xlink" width="200" height="200"><defs><style type="text/css"></style></defs><path d="M819.2 365.2352a25.6 25.6 0 0 1 51.2 0v399.8208A105.344 105.344 0 0 1 765.056 870.4H233.344A105.344 105.344 0 0 1 128 765.056V233.344A105.344 105.344 0 0 1 233.344 128h457.6256a25.6 25.6 0 0 1 0 51.2H233.344A54.144 54.144 0 0 0 179.2 233.344v531.712C179.2 794.9568 203.4432 819.2 233.344 819.2h531.712A54.144 54.144 0 0 0 819.2 765.056V365.2352z" p-id="3409"></path><path d="M307.2 640a25.6 25.6 0 0 0 0 51.2h358.4a25.6 25.6 0 0 0 0-51.2H307.2z m0-51.2h358.4a76.8 76.8 0 0 1 0 153.6H307.2a76.8 76.8 0 0 1 0-153.6zM273.3568 533.2224a25.6 25.6 0 1 1-38.2464-34.048l109.6704-123.2128a25.6 25.6 0 0 1 31.5392-5.376l157.5168 87.3472 89.6768-90.3936a25.6 25.6 0 0 1 36.352 36.0448l-103.3216 104.192a25.6 25.6 0 0 1-30.592 4.352l-156.544-86.8096-96.0512 107.904z" p-id="3410"></path><path d="M678.4 396.8a51.2 51.2 0 1 1 0-102.4 51.2 51.2 0 0 1 0 102.4z m0-25.6a25.6 25.6 0 1 0 0-51.2 25.6 25.6 0 0 0 0 51.2z" p-id="3411"></path></svg>