<?xml version="1.0" standalone="no"?><!DOCTYPE svg PUBLIC "-//W3C//DTD SVG 1.1//EN" "http://www.w3.org/Graphics/SVG/1.1/DTD/svg11.dtd"><svg t="1558950660052" class="icon" style="" viewBox="0 0 1024 1024" version="1.1" xmlns="http://www.w3.org/2000/svg" p-id="3160" xmlns:xlink="http://www.w3.org/1999/xlink" width="200" height="200"><defs><style type="text/css"></style></defs><path d="M562.5856 819.2H230.4a25.6 25.6 0 0 1-25.6-25.6V230.4a25.6 25.6 0 0 1 25.6-25.6h435.2a25.6 25.6 0 0 1 25.6 25.6 25.6 25.6 0 0 0 51.2 0 76.8 76.8 0 0 0-76.8-76.8H230.4a76.8 76.8 0 0 0-76.8 76.8v563.2a76.8 76.8 0 0 0 76.8 76.8h332.1856a25.6 25.6 0 0 0 0-51.2z" p-id="3161"></path><path d="M512 332.8a25.6 25.6 0 0 0-25.6-25.6h-204.8a25.6 25.6 0 1 0 0 51.2h204.8a25.6 25.6 0 0 0 25.6-25.6z m-25.6 153.6a25.6 25.6 0 0 0-25.6-25.6h-179.2a25.6 25.6 0 0 0 0 51.2h179.2a25.6 25.6 0 0 0 25.6-25.6z m-204.8 153.6a25.6 25.6 0 0 0 0 51.2h102.4a25.6 25.6 0 0 0 0-51.2h-102.4z m512-38.4h-52.9408C760.064 547.4304 793.6 447.7184 793.6 435.2a128 128 0 0 0-256 0c0 16.0512 31.872 111.7952 52.5568 166.4H537.6a76.8 76.8 0 0 0-76.8 76.8v25.6a76.8 76.8 0 0 0 76.8 76.8h256a76.8 76.8 0 0 0 76.8-76.8v-25.6a76.8 76.8 0 0 0-76.8-76.8z m-177.2288-78.7712C600.8832 478.208 588.8 438.8864 588.8 435.2a76.8 76.8 0 1 1 153.6 0c0 5.0432-41.7536 126.7712-56.2688 166.4h-40.96c-6.4-16.128-17.92-47.4112-28.8-78.7712zM819.2 704a25.6 25.6 0 0 1-25.6 25.6H537.6a25.6 25.6 0 0 1-25.6-25.6v-25.6a25.6 25.6 0 0 1 25.6-25.6h256a25.6 25.6 0 0 1 25.6 25.6v25.6z" p-id="3162"></path></svg>