<?xml version="1.0" standalone="no"?><!DOCTYPE svg PUBLIC "-//W3C//DTD SVG 1.1//EN" "http://www.w3.org/Graphics/SVG/1.1/DTD/svg11.dtd"><svg t="1558946173635" class="icon" style="" viewBox="0 0 1024 1024" version="1.1" xmlns="http://www.w3.org/2000/svg" p-id="4618" xmlns:xlink="http://www.w3.org/1999/xlink" width="200" height="200"><defs><style type="text/css"></style></defs><path d="M702.3872 281.6H332.672a25.6 25.6 0 0 0-25.472 25.4976 25.6 25.6 0 0 0 25.472 25.4976h370.0736a25.6 25.6 0 0 0 25.4464-25.4976A25.9072 25.9072 0 0 0 702.3872 281.6z m-261.9392 105.4464h-107.776a25.6 25.6 0 0 0-25.472 25.4976 25.6 25.6 0 0 0 25.472 25.472h107.776a25.6 25.6 0 0 0 25.472-25.472 25.3952 25.3952 0 0 0-25.472-25.4976z m-107.776 157.1072A25.1904 25.1904 0 0 1 307.2 518.656a25.6 25.6 0 0 1 25.472-25.472h53.0176a25.6 25.6 0 0 1 25.472 25.472 25.6 25.6 0 0 1-25.472 25.4976h-52.992z m-119.6544 244.9152a21.76 21.76 0 0 0 21.504 21.6064h361.1648V870.4H234.496A80.9472 80.9472 0 0 1 153.6 789.0688V234.9568A81.0496 81.0496 0 0 1 234.496 153.6h554.2912a80.9728 80.9728 0 0 1 80.896 81.3568v366.2592h-59.4176V234.9312a21.7344 21.7344 0 0 0-21.504-21.6064H234.5472a21.76 21.76 0 0 0-21.504 21.632v554.112z" fill="#515151" p-id="4619"></path><path d="M827.392 764.416l-1.0752-1.024-1.024-1.024-121.3952-121.5488A132.5568 132.5568 0 1 0 460.8 567.8592c0 35.2 13.952 68.9408 38.8096 93.824a132.4032 132.4032 0 0 0 93.7216 38.8608 129.2288 129.2288 0 0 0 74.2912-23.04l121.728 121.856c0 0.3328 0.3328 0.3328 0.3328 0.6912l1.024 1.024c0.3584 0.3584 0.3584 0.3584 0.7168 0.3584l0.3584 0.3328a25.6512 25.6512 0 0 0 35.9168-0.6912c10.1376-9.7536 10.1376-26.1632-0.3328-36.6336z m-234.4192-116.9408a79.5392 79.5392 0 0 1-79.5136-79.616 79.5392 79.5392 0 1 1 159.0272 0c0 44.032-35.584 79.616-79.5136 79.616z" fill="#515151" p-id="4620"></path></svg>