<?xml version="1.0" standalone="no"?><!DOCTYPE svg PUBLIC "-//W3C//DTD SVG 1.1//EN" "http://www.w3.org/Graphics/SVG/1.1/DTD/svg11.dtd"><svg t="1558950624401" class="icon" style="" viewBox="0 0 1024 1024" version="1.1" xmlns="http://www.w3.org/2000/svg" p-id="2547" xmlns:xlink="http://www.w3.org/1999/xlink" width="200" height="200"><defs><style type="text/css"></style></defs><path d="M685.9776 273.4336a25.6 25.6 0 1 1 29.5168-41.8304 371.3024 371.3024 0 0 1 113.1008 127.6672 361.8048 361.8048 0 0 1 13.3632 313.088 364.8512 364.8512 0 0 1-79.6928 116.48 371.1744 371.1744 0 0 1-118.144 78.5152C598.272 886.3488 549.632 896 499.6096 896c-50.0992 0-98.816-9.7024-144.512-28.7744a370.6368 370.6368 0 0 1-118.1184-78.4128 366.0032 366.0032 0 0 1-79.7184-116.5312 361.9072 361.9072 0 0 1 13.3888-313.088 371.84 371.84 0 0 1 113.024-127.6416 25.6 25.6 0 0 1 29.5168 41.8304 320.64 320.64 0 0 0-97.408 109.9776 310.7072 310.7072 0 0 0-11.4688 268.7232 314.752 314.752 0 0 0 68.608 100.2496 319.4368 319.4368 0 0 0 101.888 67.6352c39.4496 16.4608 81.4592 24.832 124.7744 24.832 43.3408 0 85.3248-8.32 124.8512-24.704a319.9232 319.9232 0 0 0 101.888-67.712 313.7024 313.7024 0 0 0 68.608-100.224 310.6304 310.6304 0 0 0-11.4688-268.7232 320.128 320.128 0 0 0-97.4848-110.0032z m-160.7424 201.472a25.6 25.6 0 1 1-51.2 0V153.6a25.6 25.6 0 1 1 51.2 0v321.3312z" p-id="2548"></path></svg>