<?xml version="1.0" standalone="no"?><!DOCTYPE svg PUBLIC "-//W3C//DTD SVG 1.1//EN" "http://www.w3.org/Graphics/SVG/1.1/DTD/svg11.dtd"><svg t="1558950652066" class="icon" style="" viewBox="0 0 1024 1024" version="1.1" xmlns="http://www.w3.org/2000/svg" p-id="2915" xmlns:xlink="http://www.w3.org/1999/xlink" width="200" height="200"><defs><style type="text/css"></style></defs><path d="M388.7104 483.968H179.968A52.1216 52.1216 0 0 1 128 432V223.2832c0-28.5952 23.3728-51.968 51.968-51.968h209.152c28.5952 0 51.968 23.3728 51.968 51.968v209.152a52.1216 52.1216 0 0 1-52.3776 51.5328zM179.968 223.2832v209.152h209.152v-209.152H179.968z m515.7632 304a51.4048 51.4048 0 0 1-36.8128-15.1552l-147.6608-147.6864a51.4048 51.4048 0 0 1-15.1552-36.8128c0-13.824 5.1968-26.8288 15.1552-36.7872l147.6608-147.6864c9.984-9.9584 22.9632-15.1552 36.8128-15.1552 13.8752 0 26.88 5.1968 36.8128 15.1552l147.6864 147.6864c9.9584 9.9584 15.1552 22.9376 15.1552 36.7872 0 13.8752-5.1968 26.88-15.1552 36.8128l-147.6864 147.6864c-9.9584 9.9584-22.9376 15.1552-36.8128 15.1552z m0-347.7504l-147.6608 147.6608 147.6608 147.6864 147.6864-147.6864-147.6864-147.6608zM388.7104 895.3856H179.968A52.1216 52.1216 0 0 1 128 843.4176v-209.152c0-28.5952 23.3728-51.968 51.968-51.968h209.152c28.5952 0 51.968 23.3728 51.968 51.968v209.152a52.224 52.224 0 0 1-52.3776 51.968zM179.968 634.6752v209.152h209.152v-209.152H179.968z m620.1344 260.7104h-209.152a52.1216 52.1216 0 0 1-51.968-51.968v-209.152c0-28.5952 23.3728-51.968 51.968-51.968h209.152c28.5952 0 51.968 23.3728 51.968 51.968v209.152c0 29.0048-22.9632 51.968-51.968 51.968zM591.36 634.6752v209.152h209.1776v-209.152h-209.152z" p-id="2916"></path></svg>