<?xml version="1.0" standalone="no"?><!DOCTYPE svg PUBLIC "-//W3C//DTD SVG 1.1//EN" "http://www.w3.org/Graphics/SVG/1.1/DTD/svg11.dtd"><svg t="1558950620232" class="icon" style="" viewBox="0 0 1024 1024" version="1.1" xmlns="http://www.w3.org/2000/svg" p-id="2425" xmlns:xlink="http://www.w3.org/1999/xlink" width="200" height="200"><defs><style type="text/css"></style></defs><path d="M625.4848 570.4448c1.1776 2.1504 2.56 3.2 2.432 3.1488C765.9776 618.5472 870.4 688.64 870.4 763.8272v24.192C870.4 887.6032 736.6912 921.6 512.9728 921.6 288.6144 921.6 153.6 887.5264 153.6 788.0192v-24.192c0-72.6528 101.0688-141.9008 236.0576-189.952 9.2672-3.328 15.7952-12.8512 9.1136-33.5616-54.9376-57.5488-91.0848-143.9232-91.0848-225.4592C307.712 185.3696 393.984 102.4 512.0256 102.4 630.144 102.4 716.8 185.4464 716.8 314.8544c0 80.64-35.84 166.2464-90.2144 224.0768-4.7104 15.9744-4.1728 25.9072-1.1008 31.5136z m-47.2832-48.384a25.216 25.216 0 0 1 7.168-14.1312C633.1648 459.4944 665.6 384.0512 665.6 314.8544 665.6 214.2208 602.3424 153.6 512 153.6c-90.2144 0-153.1392 60.5184-153.1392 161.2544 0 69.76 32.4352 145.4592 80.256 193.536a25.6 25.6 0 0 1 5.7088 8.7808c20.992 54.1952-3.3792 92.4672-37.9136 104.9088C292.8128 662.6816 204.8 722.9952 204.8 763.8272v24.192C204.8 840.7296 322.3808 870.4 512.9728 870.4 703.1552 870.4 819.2 840.8832 819.2 788.0192v-24.192c0-42.9056-90.112-103.424-206.976-141.4912-31.232-10.0608-50.944-45.056-34.048-100.2752z" p-id="2426"></path></svg>